<?xml version="1.0" encoding="iso-8859-1"?>
<!-- Generator: Adobe Illustrator 18.0.0, SVG Export Plug-In . SVG Version: 6.00 Build 0)  -->
<!DOCTYPE svg PUBLIC "-//W3C//DTD SVG 1.1//EN" "http://www.w3.org/Graphics/SVG/1.1/DTD/svg11.dtd">
<svg version="1.1" id="Capa_1" xmlns="http://www.w3.org/2000/svg" xmlns:xlink="http://www.w3.org/1999/xlink" x="0px" y="0px"
	 viewBox="0 0 474.3 474.3" style="enable-background:new 0 0 474.3 474.3;" xml:space="preserve">
<path d="M370.99,146.795c-4.371-11.939-15.409-19.96-27.468-19.96c-4.879,0-9.712,1.275-14.365,3.79l-22.408,12.113
	c-0.598,0.323-1.176,0.487-1.72,0.487c-1.438,0-2.609-1.142-3.09-2.203c-0.562-1.241-0.353-2.433,0.622-3.542l38.908-44.284
	c6.612-7.526,8.162-17.317,4.146-26.192c-4.126-9.118-12.994-15.01-22.592-15.01c-4.759,0-9.342,1.417-13.622,4.213L290.68,68.436
	c-0.909,0.594-1.858,0.895-2.823,0.895c-1.669,0-3.333-0.9-4.343-2.349c-0.675-0.967-1.314-2.564-0.534-4.681l5.673-15.388
	c1.809-4.907,1.176-10.117-1.736-14.294c-2.955-4.239-7.967-6.873-13.078-6.873c-4.036,0-7.906,1.621-10.897,4.563
	c-1.121,1.103-2.352,1.334-3.187,1.334c-1.861,0-4.091-1.176-4.585-3.758l-2.952-15.429C250.814,5.123,244.619,0,237.151,0
	s-13.663,5.123-15.067,12.457l-2.953,15.43c-0.493,2.582-2.723,3.758-4.585,3.758c-0.834,0-2.064-0.231-3.186-1.335
	c-2.991-2.942-6.861-4.563-10.896-4.563c-5.112,0-10.124,2.634-13.079,6.874c-2.912,4.177-3.544,9.387-1.735,14.294l5.673,15.387
	c0.78,2.116,0.14,3.713-0.534,4.68c-1.011,1.45-2.675,2.35-4.345,2.351c-0.964,0-1.913-0.301-2.822-0.895L164.9,56.208
	c-4.221-2.756-8.931-4.213-13.622-4.213c-9.599,0-18.467,5.891-22.593,15.009c-4.016,8.875-2.466,18.667,4.146,26.193l38.908,44.283
	c0.975,1.109,1.184,2.3,0.622,3.541c-0.48,1.062-1.652,2.204-3.09,2.204c-0.544,0-1.122-0.164-1.72-0.487l-22.408-12.113
	c-4.653-2.515-9.486-3.79-14.365-3.79c-12.059,0-23.098,8.021-27.469,19.96c-4.261,11.636-0.873,23.968,8.842,32.183l76.145,64.392
	c1.99,1.684,1.659,3.649,1.285,4.67c-0.492,1.344-1.799,2.914-3.863,2.914c-0.396,0-0.818-0.057-1.253-0.168l-16.565-4.259
	c-1.812-0.465-3.642-0.702-5.441-0.702c-8.472,0-16.011,5.24-19.207,13.35c-3.188,8.091-1.188,16.832,5.22,22.812l58.894,54.958
	c-1.507-0.497-3.055-0.748-4.609-0.748c-5.063,0-9.866,2.745-12.535,7.163c-2.653,4.392-2.805,9.74-0.404,14.306
	c11.483,21.846,18.468,45.062,22.305,60.691c2.383,9.701,9.724,17.095,19.03,19.718V468.3c0,3.313,2.687,6,6,6s6-2.687,6-6v-30.227
	c9.307-2.623,16.648-10.018,19.029-19.718c3.839-15.632,10.825-38.851,22.306-60.69c2.4-4.565,2.249-9.914-0.404-14.306
	c-2.669-4.418-7.473-7.163-12.535-7.163c-1.557,0-3.107,0.252-4.617,0.75l58.9-54.96c6.408-5.979,8.407-14.721,5.219-22.812
	c-3.196-8.109-10.734-13.35-19.205-13.35c-1.8,0-3.631,0.236-5.442,0.702l-16.565,4.259c-0.435,0.112-0.856,0.168-1.254,0.168
	c-2.064,0-3.371-1.568-3.862-2.912c-0.375-1.022-0.705-2.988,1.286-4.672l76.144-64.392
	C371.863,170.763,375.251,158.431,370.99,146.795z M332.454,85.275l-38.908,44.284c-4.118,4.688-5.067,10.823-2.539,16.411
	c2.546,5.623,8.05,9.255,14.023,9.255c2.559,0,5.057-0.65,7.426-1.931l22.407-12.113c2.881-1.557,5.795-2.347,8.659-2.347
	c4.281,0,7.925,1.69,10.745,4.16c-55.691,25.64-97.397,60.619-113.116,74.834v-67.984c8.954-6.135,49.928-35.092,92.67-79.498
	c0.318,0.512,0.608,1.046,0.861,1.604C335.885,74.611,337.197,79.878,332.454,85.275z M158.338,66.254l18.721,12.228
	c2.854,1.863,6.099,2.848,9.387,2.848c5.615-0.001,10.919-2.8,14.187-7.488c3.216-4.612,3.926-10.332,1.95-15.693l-5.673-15.387
	c-0.458-1.242-0.354-2.315,0.319-3.28c0.735-1.055,2.005-1.736,3.235-1.736c0.904,0,1.716,0.365,2.48,1.118
	c3.135,3.083,7.255,4.78,11.603,4.78c7.989-0.001,14.873-5.679,16.37-13.502l2.953-15.43c0.469-2.448,2.451-2.712,3.281-2.712
	s2.812,0.265,3.279,2.712l2.953,15.43c1.498,7.824,8.383,13.502,16.371,13.502c4.349,0,8.469-1.698,11.602-4.78
	c0.766-0.752,1.577-1.118,2.482-1.118c1.229,0,2.499,0.681,3.234,1.736c0.674,0.966,0.778,2.039,0.32,3.28l-5.673,15.387
	c-1.977,5.361-1.266,11.082,1.949,15.694c3.269,4.688,8.572,7.487,14.188,7.487c3.287,0,6.533-0.985,9.385-2.848l18.721-12.228
	c2.296-1.5,4.671-2.26,7.06-2.26c1.645,0,3.271,0.38,4.789,1.06c-37.066,38.467-72.692,65.113-86.661,75.033V82.352
	c6.329-3.67,14.605-12.527,24.658-26.398c1.296-1.789,0.896-4.29-0.893-5.586c-1.786-1.295-4.288-0.897-5.586,0.892
	c-7.039,9.714-13.344,17.049-18.18,21.24V40.676c0-2.209-1.791-4-4-4s-4,1.791-4,4v39.336c-9.269-8.715-16.003-19.964-20.266-28.582
	c-0.979-1.98-3.376-2.79-5.358-1.812c-1.98,0.979-2.791,3.378-1.812,5.359c5.355,10.829,14.402,25.556,27.436,35.509v61.926
	c-18.598-10.038-58.233-54.87-84.775-88.028c0.949-0.251,1.922-0.389,2.901-0.389C153.667,63.994,156.042,64.754,158.338,66.254z
	 M130.779,138.834c2.865,0,5.778,0.79,8.658,2.347l22.408,12.113c2.37,1.281,4.869,1.931,7.427,1.931
	c5.974,0,11.479-3.634,14.022-9.257c2.528-5.587,1.579-11.721-2.539-16.409l-38.908-44.284c-4.743-5.398-3.433-10.666-2.229-13.325
	c0.53-1.17,1.214-2.245,2.014-3.202c15.699,19.6,67.64,82.85,91.519,92.408v72.284c-16.618-18.382-40.626-38.69-71.554-60.508
	c-18.621-13.136-34.999-23.394-43.16-28.374C121.413,141.258,125.641,138.834,130.779,138.834z M164.912,258.148l16.565,4.259
	c1.41,0.363,2.838,0.546,4.242,0.546c6.793,0,12.731-4.235,15.131-10.788c2.396-6.544,0.555-13.426-4.806-17.959L119.9,169.814
	c-8.009-6.772-6.698-14.734-5.51-18.35c19.447,11.89,85.691,53.932,118.761,94.223v59.968
	c-20.969-16.104-56.356-36.88-74.821-46.719c1.157-0.68,2.536-1.112,4.129-1.112C163.251,257.824,164.077,257.933,164.912,258.148z
	 M223.775,415.493c-3.997-16.278-11.29-40.493-23.338-63.413c-0.452-0.861-0.435-1.708,0.055-2.518
	c0.399-0.661,1.204-1.368,2.264-1.368c0.313,0,0.642,0.063,0.968,0.185l0.714,0.264c1.358,0.5,2.756,0.753,4.152,0.753
	c4.787-0.001,9.044-2.953,10.844-7.521c1.793-4.55,0.666-9.467-2.94-12.833l-59.834-55.831c-2.82-2.632-3.097-5.529-2.787-7.589
	c19.471,10.309,59.691,33.938,79.28,50.267v51.268c-3.642-4.664-7.497-8.1-10.681-10.488c-1.767-1.326-4.274-0.968-5.6,0.799
	c-1.326,1.767-0.969,4.274,0.799,5.6c4.749,3.562,11.23,9.849,15.481,19.657v23.652c0,0.006,0,0.012,0,0.017v17.546
	c0,0.941,0.339,1.795,0.883,2.478C229.012,424.856,225.075,420.787,223.775,415.493z M317.642,273.212l-59.832,55.83
	c-3.608,3.367-4.735,8.285-2.942,12.835c1.801,4.568,6.058,7.52,10.846,7.52c1.396,0,2.793-0.253,4.158-0.755l0.697-0.258
	c1.475-0.549,2.724,0.323,3.241,1.179c0.488,0.81,0.507,1.657,0.055,2.518c-12.045,22.912-19.34,47.13-23.339,63.413
	c-1.3,5.294-5.236,9.363-10.258,10.926c0.544-0.683,0.883-1.537,0.883-2.478v-16.77c8.564-20.393,22.972-45.116,23.118-45.366
	c1.115-1.907,0.473-4.357-1.435-5.472c-1.909-1.116-4.356-0.472-5.472,1.435c-0.454,0.777-8.511,14.602-16.212,30.25v-6.097
	c0-0.006,0-0.012,0-0.019v-54.069c20.704-26.201,63.817-53.145,79.259-62.327C320.748,267.572,320.517,270.53,317.642,273.212z
	 M354.401,169.814l-76.144,64.392c-5.361,4.534-7.203,11.416-4.807,17.961c2.399,6.552,8.339,10.786,15.132,10.785
	c1.405,0,2.832-0.184,4.241-0.546l16.565-4.259c0.835-0.215,1.661-0.324,2.454-0.324c1.551,0,2.897,0.413,4.036,1.063
	c-6.243,3.716-16.506,10.028-27.887,17.86c-20.099,13.83-35.795,26.842-46.842,38.81v-86.816
	c7.744-7.432,53.462-49.813,118.003-79.181c0.208,0.452,0.402,0.906,0.568,1.36C360.931,154.225,362.836,162.682,354.401,169.814z"
	/>
<g>
</g>
<g>
</g>
<g>
</g>
<g>
</g>
<g>
</g>
<g>
</g>
<g>
</g>
<g>
</g>
<g>
</g>
<g>
</g>
<g>
</g>
<g>
</g>
<g>
</g>
<g>
</g>
<g>
</g>
</svg>
